<svg width="33" height="33" viewBox="0 0 33 33" fill="none" xmlns="http://www.w3.org/2000/svg">
<path d="M23.1935 4.12665L18.5535 6.44665C17.2601 7.08665 15.7535 7.08665 14.4601 6.44665L9.80679 4.11331C5.83346 2.12665 1.63346 6.41998 3.71346 10.3533L4.80679 12.4066C4.95346 12.6866 5.19346 12.9133 5.48679 13.0466L22.3535 20.6333C23.0468 20.94 23.8601 20.66 24.2068 19.9933L29.2868 10.34C31.3535 6.41998 27.1668 2.12665 23.1935 4.12665Z" fill="#1775E4"/>
<path opacity="0.4" d="M21.3001 22.2466L10.2601 17.2733C9.02011 16.7133 7.76677 18.0466 8.40677 19.2466L12.4601 26.94C14.1801 30.2066 18.8468 30.2066 20.5668 26.94L21.9934 24.22C22.3668 23.4866 22.0468 22.5933 21.3001 22.2466Z" fill="#1775E4"/>
</svg>
