<svg width="14" height="14" viewBox="0 0 14 14" fill="none" xmlns="http://www.w3.org/2000/svg">
<path opacity="0.4" d="M9.444 1.16663H4.55567C2.43234 1.16663 1.1665 2.43246 1.1665 4.55579V9.43829C1.1665 11.5675 2.43234 12.8333 4.55567 12.8333H9.43817C11.5615 12.8333 12.8273 11.5675 12.8273 9.44413V4.55579C12.8332 2.43246 11.5673 1.16663 9.444 1.16663Z" fill="#F9BA33"/>
<path d="M9.76954 4.08337H6.95204C6.71287 4.08337 6.51454 4.28171 6.51454 4.52087C6.51454 4.76004 6.71287 4.95837 6.95204 4.95837H8.7137L4.21037 9.46171C4.0412 9.63087 4.0412 9.91087 4.21037 10.08C4.29787 10.1675 4.4087 10.2084 4.51954 10.2084C4.63037 10.2084 4.7412 10.1675 4.8287 10.08L9.33204 5.57671V7.33837C9.33204 7.57754 9.53037 7.77587 9.76954 7.77587C10.0087 7.77587 10.207 7.57754 10.207 7.33837V4.52087C10.207 4.28171 10.0087 4.08337 9.76954 4.08337Z" fill="#F9BA33"/>
</svg>
