<svg width="15" height="15" viewBox="0 0 15 15" fill="none" xmlns="http://www.w3.org/2000/svg">
<path opacity="0.4" d="M9.944 1.66663H5.05567C2.93234 1.66663 1.6665 2.93246 1.6665 5.05579V9.93829C1.6665 12.0675 2.93234 13.3333 5.05567 13.3333H9.93817C12.0615 13.3333 13.3273 12.0675 13.3273 9.94413V5.05579C13.3332 2.93246 12.0673 1.66663 9.944 1.66663Z" fill="#FE3766"/>
<path d="M10.2695 4.58337H7.45204C7.21287 4.58337 7.01454 4.78171 7.01454 5.02087C7.01454 5.26004 7.21287 5.45837 7.45204 5.45837H9.2137L4.71037 9.96171C4.5412 10.1309 4.5412 10.4109 4.71037 10.58C4.79787 10.6675 4.9087 10.7084 5.01954 10.7084C5.13037 10.7084 5.2412 10.6675 5.3287 10.58L9.83204 6.07671V7.83837C9.83204 8.07754 10.0304 8.27587 10.2695 8.27587C10.5087 8.27587 10.707 8.07754 10.707 7.83837V5.02087C10.707 4.78171 10.5087 4.58337 10.2695 4.58337Z" fill="#FE3766"/>
</svg>
