<svg width="15" height="14" viewBox="0 0 15 14" fill="none" xmlns="http://www.w3.org/2000/svg">
<path opacity="0.4" d="M9.944 1.16663H5.05567C2.93234 1.16663 1.6665 2.43246 1.6665 4.55579V9.43829C1.6665 11.5675 2.93234 12.8333 5.05567 12.8333H9.93817C12.0615 12.8333 13.3273 11.5675 13.3273 9.44413V4.55579C13.3332 2.43246 12.0673 1.16663 9.944 1.16663Z" fill="#1775E4"/>
<path d="M10.2695 4.08337H7.45204C7.21287 4.08337 7.01454 4.28171 7.01454 4.52087C7.01454 4.76004 7.21287 4.95837 7.45204 4.95837H9.2137L4.71037 9.46171C4.5412 9.63087 4.5412 9.91087 4.71037 10.08C4.79787 10.1675 4.9087 10.2084 5.01954 10.2084C5.13037 10.2084 5.2412 10.1675 5.3287 10.08L9.83204 5.57671V7.33837C9.83204 7.57754 10.0304 7.77587 10.2695 7.77587C10.5087 7.77587 10.707 7.57754 10.707 7.33837V4.52087C10.707 4.28171 10.5087 4.08337 10.2695 4.08337Z" fill="#1775E4"/>
</svg>
