<svg width="14" height="15" viewBox="0 0 14 15" fill="none" xmlns="http://www.w3.org/2000/svg">
<path opacity="0.4" d="M9.444 1.66663H4.55567C2.43234 1.66663 1.1665 2.93246 1.1665 5.05579V9.93829C1.1665 12.0675 2.43234 13.3333 4.55567 13.3333H9.43817C11.5615 13.3333 12.8273 12.0675 12.8273 9.94413V5.05579C12.8332 2.93246 11.5673 1.66663 9.444 1.66663Z" fill="#31D3A3"/>
<path d="M9.76954 4.58337H6.95204C6.71287 4.58337 6.51454 4.78171 6.51454 5.02087C6.51454 5.26004 6.71287 5.45837 6.95204 5.45837H8.7137L4.21037 9.96171C4.0412 10.1309 4.0412 10.4109 4.21037 10.58C4.29787 10.6675 4.4087 10.7084 4.51954 10.7084C4.63037 10.7084 4.7412 10.6675 4.8287 10.58L9.33204 6.07671V7.83837C9.33204 8.07754 9.53037 8.27587 9.76954 8.27587C10.0087 8.27587 10.207 8.07754 10.207 7.83837V5.02087C10.207 4.78171 10.0087 4.58337 9.76954 4.58337Z" fill="#31D3A3"/>
</svg>
