<svg width="33" height="32" viewBox="0 0 33 32" fill="none" xmlns="http://www.w3.org/2000/svg">
<path opacity="0.4" d="M17.6865 7.83997H7.31315C5.03315 7.83997 3.1665 9.70661 3.1665 11.9866V27.1333C3.1665 29.0666 4.55317 29.8933 6.2465 28.9466L11.4865 26.0266C12.0465 25.7199 12.9532 25.7199 13.4998 26.0266L18.7398 28.9466C20.4332 29.8933 21.8198 29.0666 21.8198 27.1333V11.9866C21.8332 9.70661 19.9665 7.83997 17.6865 7.83997Z" fill="#3BBB6E"/>
<path d="M29.8332 6.81327V21.96C29.8332 23.8933 28.4465 24.7066 26.7532 23.7733L21.8332 21.0266V11.9866C21.8332 9.70661 19.9665 7.83997 17.6865 7.83997H11.1665V6.81327C11.1665 4.53327 13.0332 2.66663 15.3132 2.66663H25.6865C27.9665 2.66663 29.8332 4.53327 29.8332 6.81327Z" fill="#3BBB6E"/>
</svg>
