<svg width="32" height="32" viewBox="0 0 32 32" fill="none" xmlns="http://www.w3.org/2000/svg">
<path opacity="0.2" d="M24.0535 18.0667C23.4935 18.6134 23.1735 19.4 23.2535 20.24C23.3735 21.68 24.6935 22.7334 26.1335 22.7334H28.6668V24.32C28.6668 27.08 26.4135 29.3334 23.6535 29.3334H8.34683C5.58683 29.3334 3.3335 27.08 3.3335 24.32V15.3467C3.3335 12.5867 5.58683 10.3334 8.34683 10.3334H23.6535C26.4135 10.3334 28.6668 12.5867 28.6668 15.3467V17.2667H25.9735C25.2268 17.2667 24.5468 17.56 24.0535 18.0667Z" fill="white"/>
<path opacity="0.8" d="M19.8002 5.26671V10.3334H8.34683C5.58683 10.3334 3.3335 12.5867 3.3335 15.3467V10.4534C3.3335 8.86673 4.30683 7.45334 5.78683 6.89334L16.3735 2.89334C18.0268 2.28 19.8002 3.49338 19.8002 5.26671Z" fill="white"/>
<path opacity="0.8" d="M30.08 18.6267V21.3734C30.08 22.1067 29.4934 22.7067 28.7467 22.7334H26.1334C24.6934 22.7334 23.3734 21.68 23.2534 20.24C23.1734 19.4 23.4934 18.6134 24.0534 18.0667C24.5467 17.56 25.2267 17.2667 25.9734 17.2667H28.7467C29.4934 17.2934 30.08 17.8933 30.08 18.6267Z" fill="white"/>
<path d="M18.6668 17H9.3335C8.78683 17 8.3335 16.5467 8.3335 16C8.3335 15.4533 8.78683 15 9.3335 15H18.6668C19.2135 15 19.6668 15.4533 19.6668 16C19.6668 16.5467 19.2135 17 18.6668 17Z" fill="white"/>
</svg>
